<?xml version="1.0" encoding="utf-8"?>
<svg viewBox="0 0 500 500" xmlns="http://www.w3.org/2000/svg" xmlns:bx="https://boxy-svg.com">
  <defs>
    <radialGradient id="gradient-8" gradientUnits="userSpaceOnUse" cy="15.716" cx="18.248" gradientTransform="scale(.99999 1)" r="29.993">
      <stop id="stop-9" stop-color="#d3e9ff" offset="0"/>
      <stop id="stop-10" stop-color="#d3e9ff" offset="0.1552"/>
      <stop id="stop-11" stop-color="#4074ae" offset="0.75"/>
      <stop id="stop-12" stop-color="#36486c" offset="1"/>
    </radialGradient>
    <radialGradient id="gradient-9" gradientUnits="userSpaceOnUse" cy="12.142" cx="15.601" gradientTransform="scale(.99999 1)" r="43.527">
      <stop id="stop-13" stop-color="#fff" offset="0"/>
      <stop id="stop-14" stop-color="#fff" stop-opacity=".16495" offset="1"/>
    </radialGradient>
    <linearGradient id="gradient-10" y2="21.042" gradientUnits="userSpaceOnUse" x2="-22.252" y1="30.057" x1="-25.176">
      <stop id="stop-15" stop-color="#fff" offset="0"/>
      <stop id="stop-16" stop-color="#fff" stop-opacity="0" offset="1"/>
    </linearGradient>
    <linearGradient id="gradient-11" y2="22.662" gradientUnits="userSpaceOnUse" x2="-22.114" y1="30.057" x1="-25.176">
      <stop id="stop-15" stop-color="#fff" offset="0"/>
      <stop id="stop-16" stop-color="#fff" stop-opacity="0" offset="1"/>
    </linearGradient>
    <radialGradient id="gradient-12" cx="12.071" gradientUnits="userSpaceOnUse" cy="12.493" r="6.7175">
      <stop id="stop-15" stop-color="#fff" offset="0"/>
      <stop id="stop-16" stop-color="#fff" stop-opacity="0" offset="1"/>
    </radialGradient>
    <linearGradient id="gradient-13" y2="22.662" gradientUnits="userSpaceOnUse" x2="-22.114" y1="28.338" x1="-22.823">
      <stop id="stop-15" stop-color="#fff" offset="0"/>
      <stop id="stop-16" stop-color="#fff" stop-opacity="0" offset="1"/>
    </linearGradient>
    <linearGradient id="gradient-14" y2="21.336" gradientUnits="userSpaceOnUse" x2="-21.962" y1="15.649" x1="-21.659">
      <stop id="stop-15" stop-color="#fff" offset="0"/>
      <stop id="stop-16" stop-color="#fff" stop-opacity="0" offset="1"/>
    </linearGradient>
  </defs>
  <path d="M 266.757 138.695 L 422.454 333.878 L 382.454 366.378 L 142.454 366.378 L 102.454 333.878 L 262.454 138.678 Z" style="stroke-width: 15px; stroke: rgb(226, 55, 55); stroke-linejoin: round; fill: rgb(236, 223, 79);" transform="matrix(-1, 0, 0, -1, 524.908005, 505.055984)"/>
  <path d="M 298.727 245.798 C 304.725 245.798 298.437 261.215 291.622 269.268 C 290.829 270.205 289.239 273.287 289.239 277.187 C 289.239 281.284 292.292 294.184 291.632 304.881 C 291.101 313.501 287.2 320.691 284.717 320.691 C 282.186 320.691 278.006 313.725 277.456 305.284 C 276.761 294.604 280.087 281.562 280.087 277.267 C 280.087 273.168 278.414 269.879 277.585 268.839 C 271.062 260.645 265.3 245.662 270.703 245.662 C 277.854 245.662 277.026 245.662 284.882 245.662 C 292.636 245.662 288.883 245.798 298.743 245.662 L 298.727 245.798 Z" style="fill: rgb(226, 55, 55); stroke-width: 2px; stroke: rgb(108, 108, 108);" transform="matrix(0.862197, -0.506573, 0.506573, 0.862197, -104.196693, 183.318835)"/>
  <g id="g-27" transform="matrix(2.157756, 0, 0, 2.157756, 206.311157, 164.966599)">
    <path id="path-25" d="m43.96 23.485c0 10.71-8.6821 19.392-19.39 19.392-10.709 0-19.391-8.6821-19.391-19.392 0-10.709 8.6816-19.39 19.391-19.39 10.708 0 19.39 8.6811 19.39 19.39z" stroke="#39396c" fill="url(#gradient-8)"/>
    <g id="g-28" fill-opacity=".71345" fill="#204a87" transform="matrix(.98237 0 0 .98237 .12108 .23291)">
      <g id="g-29">
        <g id="g-30" fill="#204a87">
          <path id="path-26" fill="#204a87" d="m44.071 20.714l-0.5449 0.6172c-0.334-0.3936-0.709-0.7246-1.0898-1.0703l-0.8359 0.123-0.7637-0.8633v1.0684l0.6543 0.4951 0.4355 0.4932 0.582-0.6582c0.1465 0.2744 0.291 0.5488 0.4365 0.8232v0.8223l-0.6553 0.7402-1.1992 0.8232-0.9082 0.9063-0.582-0.6602 0.291-0.7402-0.5811-0.6582-0.9814-2.0977-0.8359-0.9453-0.2188 0.2461 0.3281 1.1934 0.6172 0.6992c0.3525 1.0176 0.7012 1.9902 1.1641 2.9629 0.7178 0 1.3945-0.0762 2.1074-0.166v0.5762l-0.8721 2.1392-0.7998 0.9043-0.6543 1.4004v2.3027l0.2188 0.9063-0.3633 0.4102-0.8008 0.4941-0.8359 0.6992 0.6914 0.7813-0.9453 0.8242 0.1816 0.5332-1.418 1.6055h-0.9443l-0.7998 0.4941h-0.5098v-0.6582l-0.2168-1.3184c-0.2813-0.8262-0.5742-1.6465-0.8721-2.4668 0-0.6055 0.0361-1.2051 0.0723-1.8105l0.3643-0.8223-0.5098-0.9883 0.0371-1.3574-0.6914-0.7813 0.3457-1.1309-0.5625-0.6382h-0.9824l-0.3271-0.3701-0.9814 0.6177-0.3994-0.4536-0.9092 0.7817c-0.6172-0.6997-1.2354-1.3989-1.8535-2.0981l-0.7266-1.7285 0.6543-0.9863-0.3633-0.4111 0.7988-1.8936c0.6563-0.8164 1.3418-1.5996 2.0352-2.3857l1.2363-0.3291 1.3809-0.1641 0.9453 0.2471 1.3447 1.3564 0.4727-0.5342 0.6533-0.082 1.2363 0.4111h0.9453l0.6543-0.5762 0.291-0.4111-0.6553-0.4111-1.0908-0.082c-0.3027-0.4199-0.584-0.8613-0.9434-1.2344l-0.3643 0.1641-0.1455 1.0703-0.6543-0.7402-0.1445-0.8242-0.7266-0.5742h-0.292l0.7275 0.8223-0.291 0.7402-0.5811 0.1641 0.3633-0.7402-0.6553-0.3281-0.5801-0.6582-1.0918 0.2461-0.1445 0.3281-0.6543 0.4121-0.3633 0.9053-0.9082 0.4521-0.4004-0.4521h-0.4355v-1.4814l0.9453-0.4941h0.7266l-0.1465-0.5752-0.5801-0.5762 0.9805-0.2061 0.5449-0.6162 0.4355-0.7412h0.8008l-0.2188-0.5752 0.5098-0.3291v0.6582l1.0898 0.2461 1.0898-0.9043 0.0732-0.4121 0.9443-0.6577c-0.3418 0.0425-0.6836 0.0737-1.0176 0.1646v-0.7411l0.3633-0.8228h-0.3633l-0.7984 0.7402-0.2188 0.4116 0.2188 0.5767-0.3643 0.9863-0.5811-0.3291-0.5078-0.5752-0.8008 0.5752-0.291-1.3159 1.3809-0.9048v-0.4941l0.873-0.5757 1.3809-0.3296 0.9453 0.3296 1.7441 0.3291-0.4355 0.4932h-0.9453l0.9453 0.9873 0.7266-0.8223 0.2207-0.3618s2.7871 2.498 4.3799 5.2305c1.5928 2.7334 2.3408 5.9551 2.3408 6.6094z"/>
        </g>
      </g>
      <g id="g-31">
        <g id="g-32" fill="#204a87">
          <path id="path-27" fill="#204a87" d="m26.07 9.2363-0.0732 0.4932 0.5098 0.3291 0.8711-0.5757-0.4355-0.4937-0.582 0.3296-0.29-0.0825"/>
        </g>
      </g>
      <g id="g-33">
        <g id="g-34" fill="#204a87">
          <path id="path-28" fill="#204a87" d="m26.87 5.8633-1.8906-0.7407-2.1797 0.2466-2.6904 0.7402-0.5088 0.4941 1.6719 1.1514v0.6582l-0.6543 0.6582 0.873 1.729 0.5801-0.3301 0.7285-1.1514c1.123-0.3472 2.1299-0.7407 3.1973-1.2344l0.873-2.2212"/>
        </g>
      </g>
      <g id="g-35">
        <g id="g-36" fill="#204a87">
          <path id="path-29" fill="#204a87" d="m28.833 12.775-0.291-0.7412-0.5098 0.165 0.1465 0.9043 0.6543-0.3281"/>
        </g>
      </g>
      <g id="g-37">
        <g id="g-38" fill="#204a87">
          <path id="path-30" fill="#204a87" d="m29.123 12.609-0.1455 0.9883 0.7998-0.165 0.5811-0.5752-0.5088-0.4941c-0.171-0.455-0.368-0.88-0.582-1.317h-0.4355v0.4932l0.29 0.3291v0.7402"/>
        </g>
      </g>
      <g id="g-39">
        <g id="g-40" fill="#204a87">
          <path id="path-31" fill="#204a87" d="m18.365 28.242-0.582-1.1523-1.0903-0.2466-0.5815-1.5625-1.4536 0.1641-1.2354-0.9043-1.3091 1.1514v0.1816c-0.396-0.1143-0.8828-0.1299-1.2354-0.3467l-0.291-0.8223v-0.9053l-0.8721 0.082c0.0728-0.5762 0.145-1.1514 0.2183-1.7275h-0.5093l-0.5083 0.6582-0.5093 0.2461-0.7271-0.4102-0.0728-0.9053 0.1455-0.9873 1.0908-0.8223h0.8721l0.145-0.4941 1.0903 0.2461 0.7998 0.9883 0.1455-1.6465 1.3813-1.1514 0.5088-1.2344 1.0176-0.4111 0.5815-0.8223 1.3081-0.248 0.6548-0.9863h-1.9629l1.2358-0.5762h0.8716l1.2363-0.4121 0.1455-0.4922-0.4365-0.4121-0.5088-0.165 0.1455-0.4932-0.3633-0.7402-0.8726 0.3281 0.1455-0.6577-1.0176-0.5762-0.7993 1.3979 0.0723 0.4941-0.7993 0.3301-0.5093 1.0693-0.2178-0.9873-1.3813-0.5762-0.2183-0.7402 1.8174-1.0703 0.7998-0.7402 0.0728-0.9048-0.436-0.2471-0.5815-0.0825-0.3633 0.9053s-0.6079 0.1191-0.7642 0.1577c-1.9961 1.8394-6.0293 5.8101-6.9663 13.306 0.0371 0.1738 0.6792 1.1816 0.6792 1.1816l1.5264 0.9043 1.5264 0.4121 0.6548 0.8232 1.0171 0.7402 0.5815-0.082 0.436 0.1963v0.1328l-0.5811 1.563-0.4365 0.6582 0.1455 0.3301-0.3633 1.2324 1.3086 2.3867 1.3081 1.1523 0.582 0.8223-0.0732 1.7285 0.4365 0.9863-0.4365 1.8926s-0.0342-0.0117 0.0215 0.1777c0.0562 0.1895 2.3291 1.4512 2.4736 1.3438 0.144-0.1094 0.2671-0.2051 0.2671-0.2051l-0.145-0.4102 0.5811-0.5762 0.2183-0.5762 0.9453-0.3301 0.7266-1.8105-0.2178-0.4922 0.5078-0.7402 1.0908-0.248 0.582-1.3164-0.1455-1.6445 0.8721-1.2344 0.1455-1.2344c-1.194-0.59-2.377-1.2-3.562-1.809"/>
        </g>
      </g>
      <g id="g-41">
        <g id="g-42" fill="#204a87">
          <path id="path-32" fill="#204a87" d="m16.766 9.5649 0.7266 0.4937h0.582v-0.5757l-0.7266-0.3291-0.582 0.4111"/>
        </g>
      </g>
      <g id="g-43">
        <g id="g-44" fill="#204a87">
          <path id="path-33" fill="#204a87" d="m14.876 8.9072-0.3638 0.9048h0.7271l0.3638-0.8228c0.314-0.2217 0.626-0.4448 0.945-0.6582l0.7271 0.2471c0.4844 0.3291 0.9688 0.6582 1.4536 0.9868l0.727-0.6577-0.8-0.3291-0.364-0.7407-1.381-0.1646-0.073-0.4116-0.654 0.165-0.29 0.5758-0.364-0.7407-0.145 0.3291 0.0728 0.8228-0.5816 0.494"/>
        </g>
      </g>
      <g id="g-45">
        <g id="g-46" fill="#204a87">
          <path id="path-34" fill="#204a87" d="m17.492 6.8496 0.364-0.3286 0.727-0.1646c0.498-0.2422 0.998-0.4053 1.5264-0.5762l-0.29-0.4937-0.9385 0.1348-0.4434 0.4419-0.731 0.106-0.6499 0.3052-0.3159 0.1528-0.1929 0.2583 0.9443 0.1641"/>
        </g>
      </g>
      <g id="g-47">
        <g id="g-48" fill="#204a87">
          <path id="path-35" fill="#204a87" d="m18.728 14.666 0.4365-0.6582-0.6548-0.4932 0.2183 1.1514"/>
        </g>
      </g>
    </g>
    <path id="path-36" opacity=".3956" d="m42.975 23.486c0 10.166-8.2412 18.407-18.406 18.407s-18.406-8.2412-18.406-18.407c0-10.165 8.2407-18.406 18.406-18.406 10.164 0 18.406 8.2402 18.406 18.406z" stroke="url(#gradient-9)" fill="none"/>
    <path id="path-37" stroke-linejoin="round" style="color:#000000" d="m-2.8284 21.042c0 5.2233-7.044 9.4576-15.733 9.4576-8.6892 0-15.733-4.2343-15.733-9.4576s7.044-9.4576 15.733-9.4576c8.6892 0 15.733 4.2343 15.733 9.4576z" transform="matrix(1.131 .61310 -.47656 .87914 54.091 16.044)" stroke="url(#gradient-10)" stroke-linecap="round" stroke-width=".88164" fill="none"/>
    <path id="path-38" stroke-linejoin="round" style="color:#000000" d="m-2.8284 21.042c0 5.2233-7.044 9.4576-15.733 9.4576-8.6892 0-15.733-4.2343-15.733-9.4576s7.044-9.4576 15.733-9.4576c8.6892 0 15.733 4.2343 15.733 9.4576z" transform="matrix(.93933 -.87909 .68331 .73013 32.314 -4.4516)" stroke="url(#gradient-11)" stroke-linecap="round" stroke-width=".88164" fill="none"/>
    <g id="g-49" fill-rule="evenodd" transform="matrix(-1.0458 .76725 .76725 1.0458 35.617 -22.144)">
      <path id="path-39" d="m18.789 12.493c0 3.71-3.0075 6.7175-6.7175 6.7175s-6.7175-3.0075-6.7175-6.7175 3.0075-6.7175 6.7175-6.7175 6.7175 3.0075 6.7175 6.7175z" style="color:#000000" fill="url(#gradient-12)" transform="translate(14.95 22.93)"/>
      <path id="path-40" d="m18.789 12.493c0 3.71-3.0075 6.7175-6.7175 6.7175s-6.7175-3.0075-6.7175-6.7175 3.0075-6.7175 6.7175-6.7175 6.7175 3.0075 6.7175 6.7175z" style="color:#000000" fill="#fff" transform="matrix(.30827 0 0 .30827 23.3 31.572)"/>
    </g>
    <path id="path-41" stroke-linejoin="round" style="color:#000000" d="m-2.8284 21.042c0 5.2233-7.044 9.4576-15.733 9.4576-8.6892 0-15.733-4.2343-15.733-9.4576s7.044-9.4576 15.733-9.4576c8.6892 0 15.733 4.2343 15.733 9.4576z" transform="matrix(-1.2803 -.12616 .098062 -.99518 -2.4051 40.524)" stroke="url(#gradient-13)" stroke-linecap="round" stroke-width=".88164" fill="none"/>
    <path id="path-42" stroke-linejoin="round" style="color:#000000" d="m-2.8284 21.042c0 5.2233-7.044 9.4576-15.733 9.4576-8.6892 0-15.733-4.2343-15.733-9.4576s7.044-9.4576 15.733-9.4576c8.6892 0 15.733 4.2343 15.733 9.4576z" transform="matrix(.91787 -.85898 .66770 .71343 27.633 -6.9091)" stroke="url(#gradient-14)" stroke-linecap="round" stroke-width=".90226" fill="none"/>
    <g id="g-50" fill-rule="evenodd" transform="matrix(-.80628 .59154 .59154 .80628 12.386 -18.029)">
      <path id="path-43" d="m18.789 12.493c0 3.71-3.0075 6.7175-6.7175 6.7175s-6.7175-3.0075-6.7175-6.7175 3.0075-6.7175 6.7175-6.7175 6.7175 3.0075 6.7175 6.7175z" style="color:#000000" fill="url(#gradient-12)" transform="translate(14.95 22.93)"/>
      <path id="path-44" d="m18.789 12.493c0 3.71-3.0075 6.7175-6.7175 6.7175s-6.7175-3.0075-6.7175-6.7175 3.0075-6.7175 6.7175-6.7175 6.7175 3.0075 6.7175 6.7175z" style="color:#000000" fill="#fff" transform="matrix(.30827 0 0 .30827 23.3 31.572)"/>
    </g>
    <g id="g-51" fill-rule="evenodd" transform="matrix(-.80628 .59154 .59154 .80628 13.499 -31.5)">
      <path id="path-45" d="m18.789 12.493c0 3.71-3.0075 6.7175-6.7175 6.7175s-6.7175-3.0075-6.7175-6.7175 3.0075-6.7175 6.7175-6.7175 6.7175 3.0075 6.7175 6.7175z" style="color:#000000" fill="url(#gradient-12)" transform="translate(14.95 22.93)"/>
      <path id="path-46" d="m18.789 12.493c0 3.71-3.0075 6.7175-6.7175 6.7175s-6.7175-3.0075-6.7175-6.7175 3.0075-6.7175 6.7175-6.7175 6.7175 3.0075 6.7175 6.7175z" style="color:#000000" fill="#fff" transform="matrix(.30827 0 0 .30827 23.3 31.572)"/>
    </g>
    <g id="g-52" fill-rule="evenodd" transform="matrix(-.87023 .63857 .63846 .87038 25.205 -35.313)">
      <path id="path-47" d="m18.789 12.493c0 3.71-3.0075 6.7175-6.7175 6.7175s-6.7175-3.0075-6.7175-6.7175 3.0075-6.7175 6.7175-6.7175 6.7175 3.0075 6.7175 6.7175z" style="color:#000000" fill="url(#gradient-12)" transform="translate(14.95 22.93)"/>
      <path id="path-48" d="m18.789 12.493c0 3.71-3.0075 6.7175-6.7175 6.7175s-6.7175-3.0075-6.7175-6.7175 3.0075-6.7175 6.7175-6.7175 6.7175 3.0075 6.7175 6.7175z" style="color:#000000" fill="#fff" transform="matrix(.30827 0 0 .30827 23.3 31.572)"/>
    </g>
  </g>
  <text style="fill: rgb(226, 55, 55); font-size: 50px; stroke: rgb(226, 55, 55); white-space: pre;" x="165.469" y="201.572" transform="matrix(1, 0, 0.256417, 1, -51.202816, 33.796875)" bx:origin="0.487124 0.532384">H</text>
  <text style="fill: rgb(226, 55, 55); font-size: 50px; stroke: rgb(226, 55, 55); white-space: pre;" x="330.645" y="201.578" transform="matrix(1, 0, -0.289189, 1, 53.23571, 33.609375)">S</text>
</svg>